<?xml version="1.0" encoding="UTF-8"?>
<svg id="a" data-name="Слой 1" xmlns="http://www.w3.org/2000/svg" viewBox="0 0 16 16">
  <defs>
    <style>
      .b {
        fill: #161515;
      }

      .c {
        fill-rule: evenodd;
      }

      .c, .d {
        fill: #fec882;
      }

      .e {
        fill: none;
      }
    </style>
  </defs>
  <g>
    <path class="d" d="M8,13.56c-.31,0-.61-.09-.88-.23l-3.49-1.93c-.27-.14-.49-.35-.65-.61-.16-.26-.24-.55-.24-.85v-3.86c0-.61,.34-1.17,.88-1.47l3.5-1.93c.55-.3,1.22-.3,1.77,0l3.48,1.93c.55,.3,.89,.86,.89,1.46v3.86c0,.61-.34,1.17-.88,1.46l-3.49,1.93c-.28,.15-.58,.24-.89,.24Zm0-10.92c-.22,0-.44,.06-.64,.16l-3.75,2.08c-.19,.1-.35,.25-.46,.44-.11,.18-.17,.39-.18,.6v4.16c0,.43,.24,.82,.64,1.04l3.75,2.07c.38,.22,.88,.22,1.26,0l3.75-2.07c.19-.1,.35-.25,.46-.44,.11-.18,.17-.39,.18-.6V5.92c0-.43-.24-.82-.63-1.04l-3.74-2.08c-.19-.11-.41-.16-.63-.17h0Z"/>
    <path class="c" d="M8.79,3.73l2.83,1.57c.21,.12,.39,.29,.51,.5,.12,.21,.19,.45,.19,.69v3.11c0,.49-.28,.95-.72,1.19l-2.83,1.57c-.22,.12-.47,.19-.72,.19s-.5-.06-.72-.19l-2.82-1.56c-.22-.12-.4-.29-.52-.5s-.19-.45-.2-.69v-3.12c0-.5,.28-.95,.72-1.19l2.82-1.57c.22-.12,.47-.18,.72-.18s.5,.06,.72,.18h0Zm.18,6.43h1.09V5.84h-1.09v2.68l-1.82-2.68h-1.09v4.32h1.09v-2.65l1.82,2.65h0Z"/>
    <path class="b" d="M6.85,7.97h-.14l-.23-.31v.31h-.14v-.51h.14l.23,.31v-.31h.14v.51Zm.27-.41s.06,0,.09,.02c.02,.01,.04,.03,.06,.06v-.07h.14v.4h-.14v-.07s-.03,.04-.06,.06c-.03,.01-.06,.02-.1,.02-.03,0-.07,0-.09-.02-.03-.02-.05-.04-.07-.07-.02-.03-.03-.07-.02-.11,0-.04,0-.08,.02-.11,.02-.03,.04-.05,.07-.07,.03-.02,.07-.03,.1-.03h0Zm.04,.11s-.05,0-.07,.03c-.02,.02-.03,.04-.03,.07s0,.06,.03,.07c.02,.02,.04,.03,.07,.03s.05,0,.07-.03c.02-.02,.03-.04,.03-.07s0-.05-.03-.07c0,0-.02-.02-.03-.02-.01,0-.03,0-.04,0Zm.59,.19v.1h-.06s-.09,0-.12-.03c-.03-.02-.04-.06-.04-.12v-.15h-.06v-.1h.06v-.1h.14v.1h.09v.1h-.09v.15s0,.03,0,.03c0,0,.02,0,.04,0h.05Zm.06-.41s0-.03,.02-.05c.02-.01,.04-.02,.06-.02,.02,0,.05,0,.06,.02,.02,.01,.02,.03,.02,.05s0,.03-.02,.05c-.02,.01-.04,.02-.06,.02-.02,0-.05,0-.06-.02,0,0-.01-.01-.02-.02,0,0,0-.02,0-.02Zm.15,.11v.4h-.14v-.4h.14Zm.31,0s.08,0,.12,.03c.04,.01,.06,.04,.08,.07,.02,.03,.03,.07,.03,.11s0,.08-.03,.11c-.02,.03-.05,.06-.08,.07-.04,.02-.08,.02-.12,.02-.05,0-.09,0-.12-.02-.04-.02-.06-.04-.08-.07-.02-.03-.03-.07-.03-.11s0-.08,.03-.11c.02-.03,.05-.06,.08-.07,.04-.02,.08-.03,.12-.03Zm0,.11s-.05,0-.07,.03c-.02,.02-.03,.04-.03,.07s0,.06,.03,.07c.02,.02,.04,.03,.07,.03s.05,0,.07-.03c.02-.02,.03-.04,.03-.07s0-.06-.03-.07c-.02-.02-.04-.03-.07-.03h0Zm.59-.1s.05,0,.07,.01c.02,0,.04,.02,.06,.04,.03,.03,.05,.07,.05,.13v.23h-.14v-.22s0-.05-.02-.06c0,0-.02-.01-.03-.02-.01,0-.02,0-.03,0-.03,0-.05,0-.07,.02-.02,.02-.03,.04-.02,.07v.21h-.14v-.4h.14v.07s.03-.04,.06-.06c.03-.01,.06-.02,.09-.02Zm.43,0s.06,0,.09,.02,.04,.03,.06,.06v-.07h.14v.4h-.14v-.07s-.03,.04-.06,.06c-.03,.01-.06,.02-.1,.02-.03,0-.07,0-.09-.02-.03-.02-.05-.04-.07-.07-.02-.03-.03-.07-.03-.11,0-.04,0-.08,.02-.11,.02-.03,.04-.05,.07-.07,.03-.02,.06-.03,.1-.03h0Zm.05,.11s-.05,0-.07,.03c-.02,.02-.03,.04-.03,.07s0,.06,.03,.07c.02,.02,.04,.03,.07,.03s.05,0,.07-.03c.02-.02,.03-.04,.03-.07s0-.05-.03-.07c0,0-.02-.02-.03-.02-.01,0-.03,0-.04,0Zm.47-.23v.53h-.14v-.53h.14Zm-2.82,.79c.06,0,.11,.01,.14,.04,.04,.03,.06,.06,.07,.11h-.1s-.02-.04-.04-.06c-.02-.01-.05-.02-.08-.02-.04,0-.07,.01-.09,.03-.02,.02-.04,.06-.04,.1s.01,.08,.04,.1c.02,.02,.05,.03,.09,.03,.03,0,.06,0,.08-.02,.02-.01,.03-.03,.04-.06h.1s-.03,.08-.07,.11c-.04,.03-.08,.04-.14,.04-.04,0-.08,0-.12-.02-.03-.02-.06-.04-.08-.07-.02-.03-.03-.07-.03-.11s0-.08,.03-.11c.02-.03,.05-.05,.08-.07,.03-.02,.07-.03,.12-.03Zm.48,0s.07,0,.1,.03c.03,.02,.05,.04,.06,.07v-.09h.09v.39h-.09v-.09s-.03,.05-.06,.07c-.03,.02-.06,.03-.1,.03s-.07,0-.1-.02c-.03-.02-.06-.04-.07-.07-.02-.03-.03-.07-.02-.11,0-.04,0-.08,.02-.11,.02-.03,.04-.05,.07-.07,.03-.02,.07-.02,.1-.02Zm.03,.07s-.07,.01-.1,.03c-.01,.01-.02,.03-.03,.04,0,.02,0,.03,0,.05,0,.04,.01,.07,.04,.1,.02,.02,.06,.03,.1,.03,.02,0,.05,0,.07-.02,.02-.01,.04-.03,.05-.05,.01-.02,.02-.04,.02-.07s0-.05-.02-.07c-.01-.02-.03-.03-.05-.05-.02-.01-.04-.02-.07-.02h0Zm.48-.07c.05,0,.09,.01,.12,.03,.03,.02,.05,.06,.06,.1h-.09s-.01-.04-.03-.05c-.02-.01-.04-.02-.07-.02-.02,0-.04,0-.05,.01-.01,0-.02,.02-.02,.04,0,.01,0,.02,.01,.03,0,0,.02,.01,.03,.02,.01,0,.03,0,.06,.01,.03,0,.06,.01,.08,.02,.02,0,.04,.02,.05,.03,.02,.01,.02,.04,.02,.06,0,.03-.01,.06-.04,.08-.03,.02-.07,.03-.11,.03-.06,0-.1-.01-.13-.03-.02-.01-.03-.03-.04-.04-.01-.02-.02-.03-.02-.05h.09s0,.02,.01,.03,.01,.02,.02,.02c.02,.01,.04,.02,.07,.02,.02,0,.04,0,.05-.01,.01-.01,.02-.02,.02-.04,0-.01,0-.03-.01-.03,0,0-.02-.01-.04-.02-.02,0-.04-.01-.06-.01-.03,0-.05-.01-.08-.02-.02,0-.04-.02-.05-.03-.01-.01-.02-.03-.02-.06,0-.03,.01-.06,.04-.08,.03-.02,.08-.03,.12-.03Zm.27-.11s0-.01,0-.02c0,0,0-.01,.01-.02,.01,0,.02-.01,.04-.01,.02,0,.03,0,.04,.01,.01,0,.02,.02,.02,.03s0,.03-.02,.03c-.01,0-.03,.01-.04,.01-.02,0-.03,0-.04-.01,0,0,0,0-.01-.02s0-.01,0-.02Zm.11,.11v.4h-.09v-.39h.09Zm.36,0c.05,0,.09,.01,.12,.04,.03,.03,.05,.07,.05,.13v.23h-.09v-.22s0-.06-.03-.08c-.02-.02-.05-.03-.08-.03-.02,0-.03,0-.05,0-.02,0-.03,.01-.04,.02-.02,.02-.03,.05-.03,.09v.21h-.09v-.39h.09v.09s.03-.05,.06-.07c.03-.02,.06-.02,.1-.02h0Zm.48,0s.08,0,.12,.02c.03,.02,.06,.04,.08,.07,.02,.03,.03,.07,.03,.11s0,.08-.03,.11c-.02,.03-.05,.05-.08,.07-.04,.02-.08,.02-.12,.02-.04,0-.08,0-.12-.02-.03-.02-.06-.04-.08-.07-.02-.03-.03-.07-.03-.11s0-.08,.03-.11c.02-.03,.05-.05,.08-.07,.03-.02,.07-.02,.12-.02Zm0,.07s-.05,0-.07,.01c-.02,0-.04,.02-.05,.04-.01,.02-.02,.04-.02,.07s0,.05,.02,.07c.01,.02,.03,.03,.05,.04,.02,0,.04,.01,.07,.01,.02,0,.05,0,.07-.01,.02,0,.04-.02,.05-.04,.01-.02,.02-.04,.02-.07s0-.05-.02-.07c-.01-.02-.03-.03-.05-.04-.02,0-.04-.01-.06-.01h0Z"/>
  </g>
  <rect class="e" width="16" height="16"/>
</svg>